PathFileType	4	(X/Y/Z)	Patient4_TMGait_0pt4_03_left_10.trc.trc
DataRate	CameraRate	NumFrames	NumMarkers	Units	OrigDataRate	OrigDataStartFrame	OrigNumFrames
75.675675675676	75.675675675676	4	33	mm	75.675675675676	124	       141
Frame#	Time	Sacral			L.Shoulder			Chest			R.Shoulder			Neck			R.ASIS			L.ASIS			R.Thigh.Superior			R.Thigh.Lateral			R.Thigh.Inferior			R.Patella			L.Thigh.Superior			L.Thigh.Lateral			L.Thigh.Inferior			L.Patella			L.Shank.Superior			L.Shank.Lateral			L.Shank.Inferior			R.Shank.Superior			R.Shank.Lateral			R.Shank.Inferior			R.Heel			R.Midfoot.Superior			R.Midfoot.Lateral			R.Toe			L.Heel			L.Midfoot.Lateral			L.Midfoot.Superior			L.Toe			L.Elbow			L.Wrist			R.Elbow			R.Wrist			
		X1	Y1	Z1	X2	Y2	Z2	X3	Y3	Z3	X4	Y4	Z4	X5	Y5	Z5	X6	Y6	Z6	X7	Y7	Z7	X8	Y8	Z8	X9	Y9	Z9	X10	Y10	Z10	X11	Y11	Z11	X12	Y12	Z12	X13	Y13	Z13	X14	Y14	Z14	X15	Y15	Z15	X16	Y16	Z16	X17	Y17	Z17	X18	Y18	Z18	X19	Y19	Z19	X20	Y20	Z20	X21	Y21	Z21	X22	Y22	Z22	X23	Y23	Z23	X24	Y24	Z24	X25	Y25	Z25	X26	Y26	Z26	X27	Y27	Z27	X28	Y28	Z28	X29	Y29	Z29	X30	Y30	Z30	X31	Y31	Z31	X32	Y32	Z32	X33	Y33	Z33	

124	14.345357142857	805.479494025653	1003.193333199427	525.746175841498	954.039588762239	1430.122670647259	331.731603550177	1079.805544913229	1362.890739746531	476.275585821493	1021.006525707799	1431.236494087639	662.385445488412	956.030713591676	1490.123401864099	491.642056344096	1042.059970721974	935.807691135535	623.380990369383	1005.830883353555	955.603919478555	350.211935005961	1035.901362623634	723.787739729221	598.504426002788	928.829147056204	630.961887423628	660.718158249507	988.855799812204	564.168553175012	582.741527763942	968.545800895210	479.996229035016	587.825308953169	1076.913060565400	764.555035875725	370.172913180863	1015.648499109241	637.096000510498	295.275462041001	1123.215931504779	576.690285145653	345.402265638868	1146.283193477505	510.271252202469	340.801799056179	1124.772439311490	438.467766251000	331.943157965051	1046.322064155185	313.984233716955	285.716312018166	1130.174953184956	208.338039855276	331.933257775251	928.053825276803	397.691429571100	593.577775825171	841.460750032061	304.702698298305	654.348575092635	870.733911624345	205.129152112743	589.540351096883	720.148380347382	48.718645246768	554.507969044323	891.661333503327	96.224380150203	595.294961480229	801.412657943889	37.511145628454	629.561423183687	1009.812745282053	39.405452346543	624.357528757915	1034.680897069970	41.197031559856	373.390752052971	1105.389918121637	38.258772304480	290.502180996935	1186.121183658646	105.508322483347	310.619791077427	1314.401316931541	59.989549270779	278.423549935465	819.972047793117	1101.481307307760	242.518080453078	817.190036448055	839.322777662997	277.682445386349	1126.354594530065	1101.278631529456	774.540084055696	1367.057124240900	1124.354452824507	701.292394439080	
125	14.358571428571	806.275846129933	1002.469746642606	522.549086792934	954.489163213579	1429.407807793526	328.825049739762	1079.915912140006	1362.647209011528	473.876708614861	1020.183889446134	1430.828699140342	659.770335492095	955.877180813422	1489.571720053376	488.769741045890	1042.724769428314	935.345018494828	621.484818532186	1007.526569062181	954.816244471866	348.251215591345	1036.331432075609	723.141802176192	596.867516496907	928.824115357926	630.678136759665	658.960581845881	988.900412561195	563.448839946014	581.326368110975	967.858776682499	479.060332734154	586.373612386978	1078.471351955448	762.952027599860	369.122106317715	1016.596779389196	635.698896759000	294.875062146656	1123.809826290798	575.327570414664	345.885119336232	1145.986530988592	507.845501514282	341.649113210295	1123.567013009367	435.700751983426	332.665357689604	1043.155407963143	312.376558303313	286.610264298433	1124.621388536470	205.379142997403	333.798051796274	926.610115848285	397.023447989392	592.555728230327	838.915955812303	305.226031942274	653.659712116044	867.030255335953	205.108213185476	589.266618052676	714.976487230372	49.658529909634	554.817543299573	886.714701286017	96.370842490784	595.483064969481	796.233946558125	37.811382067124	629.729222402643	1004.591543394099	39.190236729212	624.399840003554	1025.424965629823	40.136836468986	374.754107015126	1096.575645213110	36.903361491358	292.172681938711	1178.514932156626	102.363563281988	313.700183868037	1306.454439069474	54.529357400161	281.843832568380	820.733369215287	1100.764875246408	239.462315554413	819.709625504651	838.589768363610	275.709854674463	1126.101690053552	1100.781017813464	771.443764813784	1366.606299513394	1126.291162885826	698.380510828494	
126	14.371785714286	807.065110637521	1001.877667236686	519.330231939267	955.127448422094	1428.776807413045	325.782464125701	1080.182443784521	1362.430318655355	471.341783021636	1019.576925386797	1430.538899206420	657.003108152902	955.905034152983	1489.133906660752	485.737710997998	1043.362905103090	934.944943027107	619.348255909981	1009.034030251703	954.195283110368	346.095010489214	1036.818092009627	722.571199918770	595.014911485761	928.991702254023	630.443558847717	657.087065584442	989.119485466345	562.799277885024	579.762916843732	967.359748321367	478.140927409959	584.799751767140	1079.909542589081	761.666170902397	367.982751648530	1017.714876106924	634.762971588445	294.170927990365	1124.508570817430	574.408680160411	346.216697211586	1145.761965258804	505.888073725209	342.257688003769	1122.599349479909	433.426748627156	333.030942259761	1040.588530431820	311.181306048357	286.924054633874	1119.720170706866	203.019798675052	335.163939622356	925.297897429590	396.373685543320	591.441654082900	836.497306358549	305.838257767029	652.912010032794	863.408130810742	205.159661247672	588.977115141848	709.840147102011	50.776839894368	555.143221819611	881.846528891744	96.560736672164	595.709900395808	791.084616940541	38.182702869546	629.910177661657	999.400647896379	38.958684022121	624.446650704067	1017.235553815310	39.344365053772	375.594195512058	1088.790221341562	36.026079891937	293.292569908420	1171.623312724330	100.057071044996	316.103448796934	1299.342378162504	50.435740408933	284.550732197592	822.172270103042	1099.882479860905	236.096315806201	823.092070715562	837.671101655821	272.962684773337	1125.508693518017	1100.353794944806	768.695514143069	1365.974589221246	1127.222566269408	695.874308056118	
127	14.385000000000	807.841099926020	1001.452533717208	516.118470220732	955.924964492687	1428.268545888580	322.634470261261	1080.597998192718	1362.257518647052	468.672956561377	1019.223373954607	1430.392222896394	654.094292247383	956.112431954372	1488.833991435332	482.573966579769	1043.957884196483	934.640703687664	616.951421313211	1010.316707486150	953.765605360096	343.708680501738	1037.305725318123	722.108879838262	592.947325403630	929.281881272303	630.293441177725	655.117788784379	989.467769608975	562.253075435452	578.077763057817	967.034692521443	477.256297149266	583.164119081910	1081.231916457084	760.807523233631	366.705823695813	1019.041692582230	634.322422555342	293.127017951804	1125.343555186933	573.947690739774	346.273678892474	1145.640923451914	504.429779195514	342.525196659034	1121.895576568222	431.665208004610	333.014085269072	1038.626498938909	310.411284474755	286.657244334295	1115.474327975662	201.270265195988	336.031852075392	924.081201034399	395.774999218363	590.269165275069	834.174144981891	306.565702701988	652.121387134512	859.861113842846	205.313251841652	588.693050798822	704.747047775081	52.100886211690	555.488552735596	877.067707320588	96.800846947205	595.981839460332	785.970170914795	38.639547267490	630.104423277965	994.241394493604	38.713598139665	624.498477180636	1010.124935318899	38.826743670851	375.989642657133	1082.012433774150	35.563838818072	293.917151947993	1165.448379409706	98.542895862947	317.790356394493	1293.045134667933	47.634936497198	286.475758563904	824.294141695097	1098.867503675805	232.440227468038	827.337632901785	836.605129880372	269.438403575093	1124.573579547639	1100.011608382625	766.282202842540	1365.190691990303	1127.112404639503	693.799913278481	
